<?xml version="1.0" encoding="utf-8"?>
<!-- Svg Vector Icons : http://www.sfont.cn -->
<!DOCTYPE svg PUBLIC "-//W3C//DTD SVG 1.1//EN" "http://www.w3.org/Graphics/SVG/1.1/DTD/svg11.dtd">
<svg version="1.1" xmlns="http://www.w3.org/2000/svg" xmlns:xlink="http://www.w3.org/1999/xlink" x="0px" y="0px" viewBox="0 0 1000 1000" enable-background="new 0 0 1000 1000" xml:space="preserve">
<metadata> Svg Vector Icons : http://www.sfont.cn </metadata>
<g><path d="M794.9,706.8c49.2,27.4,76.9,22.4,71.3,100.7L855,903.2c81.6,10.2,122.3-87.5,94.4-190.4c-15.3-56.6-40.3-63.8-25.2-123.5c20.4-80.9,22.4-69.6,65.7-97.2C822.1,387.2,687.9,520.5,432.2,379C309.3,491.2,401.3,483.7,392,614.4c-6.6,93.4-69.5,154.2-87.7,276.8c112.3-34.8,83.7-87.8,161.6-177.7C562.1,707,733.7,670.7,794.9,706.8L794.9,706.8L794.9,706.8z"/><path d="M819,752.6l-17.6-15.2c-83.5-48.7-51.2,74.4-55.4,170.3C802.2,856.6,788.6,832.2,819,752.6L819,752.6z"/><path d="M462.6,903.6c22.3-18.3,24,8.2,53.2-98c24.6-89.2,32.3-61.8-32.5-71.1L462.6,903.6L462.6,903.6L462.6,903.6z"/><path d="M456.4,242.6l-96.1-10.4l-38.1-44.9l-7.9-95.2l-68.5,99.4l-38.7-1.2l-32.8-90.9l-36.2,133l0,0c0,0-0.1,0-0.1,0.1l-16.7,11.9c-3.3,0.2-9.4,0.4-21.2,1.5c-13.2,1.3-49.6-6-60.6-7.5l1.8,2.5l-31.4-5l58.6,58.6l0.8,8.2c100.2,70.6,118.2,463.1,317.9,20l0,0L456.4,242.6z"/><path d="M274,528.8c0,31.2-18.9,56.5-42.2,56.5c-23.3,0-42.2-25.3-42.2-56.5c0-28.7-0.3,18.9,42.2,18.9S274,500,274,528.8z"/><path d="M162.4,337.9c0,13.9,11.3,25.2,25.2,25.2s25.2-11.3,25.2-25.2s-11.3-25.2-25.2-25.2S162.4,324,162.4,337.9z"/><path d="M260.5,337.9c0,13.9,11.3,25.2,25.2,25.2c13.9,0,25.2-11.3,25.2-25.2s-11.3-25.2-25.2-25.2C271.8,312.8,260.5,324,260.5,337.9z"/></g>
</svg>